/* XPM */
static char *close_pressed[] = {
/* columns rows colors chars-per-pixel */
"16 16 37 1 ",
"  c #2F333F",
". c #2F343F",
"X c #32333E",
"o c #3A333F",
"O c #3B343E",
"+ c #3A343F",
"@ c #5C353F",
"# c #5E343F",
"$ c #5F353F",
"% c #64353F",
"& c #65353F",
"* c #66353F",
"= c #67353F",
"- c #6F353F",
"; c #71353F",
": c #72363F",
"> c #75363F",
", c #78363F",
"< c #5E3540",
"1 c #653540",
"2 c #683540",
"3 c #773540",
"4 c #763640",
"5 c #773640",
"6 c #7A3540",
"7 c #783640",
"8 c #A13740",
"9 c #A13741",
"0 c #A33640",
"q c #A33740",
"w c #B53740",
"e c #B63740",
"r c #B73740",
"t c #BB3740",
"y c #BC3740",
"u c #BD3740",
"i c #BE3841",
/* pixels */
"................",
"....+70rr9,+....",
"...<eiiiiiie#...",
"..<uiiiiiiiiu#..",
".+eiiwiiiieiieO.",
".7iiiX=yy2 iii5.",
".qiii>.&1.;iii9.",
".eiiii:..-iiiie.",
".eiiiy%..$tiiie.",
".0iii*.44.&iii9.",
".,iii+6ii6+iii3.",
".+eiiiiiiiiiiwo.",
"..#uiiiiiiiiu@..",
"...#eiiiiiiw@...",
"....O58rr83o....",
"................"
};
