/* XPM */
static char *close_inactive[] = {
/* columns rows colors chars-per-pixel */
"16 16 31 1 ",
"  c #2E333F",
". c #2F343F",
"X c #303540",
"o c #333843",
"O c #40454F",
"+ c #404650",
"@ c #414650",
"# c #434953",
"$ c #444852",
"% c #444853",
"& c #444953",
"* c #454A54",
"= c #474C56",
"- c #484D57",
"; c #494E58",
": c #4A4F59",
"> c #4B4F59",
", c #4B4F5A",
"< c #4B5059",
"1 c #4B505A",
"2 c #4C515A",
"3 c #5B5F69",
"4 c #5C5F68",
"5 c #5C6069",
"6 c #636770",
"7 c #636771",
"8 c #646770",
"9 c #636871",
"0 c #656972",
"q c #666A72",
"w c #666A73",
/* pixels */
"................",
"....o<38851o....",
"...@7wwwwww7+...",
"..@wwwwwwwwww+..",
".o7ww6wwww6ww6o.",
".<wwwX&qq* www,.",
".3www;.$#.-www5.",
".7wwww;..=wwww7.",
".7www0$..@0www6.",
".3www%.::.#www5.",
".1wwwo2ww2owww>.",
".o7wwwwwwwwww6o.",
"..+wwwwwwwwwwO..",
"...+6wwwwww6O...",
"....o,4994>o....",
"................"
};
