/* XPM */
static char *close_active[] = {
/* columns rows colors chars-per-pixel */
"16 16 36 1 ",
"  c #2F343F",
". c #30343F",
"X c #32343F",
"o c #3B3641",
"O c #3C3641",
"+ c #3C3741",
"@ c #613F48",
"# c #623F49",
"$ c #633F49",
"% c #643F48",
"& c #69404A",
"* c #6A414A",
"= c #6B414A",
"- c #6C414A",
"; c #6F414B",
": c #75434C",
"> c #77434C",
", c #79444D",
"< c #7C454D",
"1 c #7F454D",
"2 c #7E454E",
"3 c #7D464E",
"4 c #7F464E",
"5 c #80464E",
"6 c #81464E",
"7 c #AD5057",
"8 c #AE5056",
"9 c #AF5057",
"0 c #C3555B",
"q c #C4555B",
"w c #C5555B",
"e c #C2545C",
"r c #C9565C",
"t c #CA565C",
"y c #CB565C",
"u c #CC575D",
/* pixels */
"                ",
"    +58ww74+    ",
"   $0uuuuuu0#   ",
"  $yuuuuuuuuy#  ",
" +0uueuuuu0uu0O ",
" 5uuuX-tt;.uuu1 ",
" 9uuu< *= >uuu7 ",
" 0uuuu,  :uuuu0 ",
" 0uuut&  %ruuu0 ",
" 8uuu= 33 *uuu7 ",
" 4uuu+6uu6+uuu2 ",
" +0uuuuuuuuuueo ",
"  #yuuuuuuuuy@  ",
"   #0uuuuuue@   ",
"    O17qq72o    ",
"                "
};
