/* XPM */
static char *hide_active[] = {
/* columns rows colors chars-per-pixel */
"16 16 2 1 ",
"  c #2F343F",
". c #8F939A",
/* pixels */
"                ",
"                ",
"                ",
"                ",
"                ",
"                ",
"                ",
"     ......     ",
"     ......     ",
"                ",
"                ",
"                ",
"                ",
"                ",
"                ",
"                "
};
