/* XPM */
static char *hide_inactive[] = {
/* columns rows colors chars-per-pixel */
"16 16 2 1 ",
"  c #2F343F",
". c #666A73",
/* pixels */
"                ",
"                ",
"                ",
"                ",
"                ",
"                ",
"                ",
"     ......     ",
"     ......     ",
"                ",
"                ",
"                ",
"                ",
"                ",
"                ",
"                "
};
