/* XPM */
static char *hide_pressed[] = {
/* columns rows colors chars-per-pixel */
"16 16 21 1 ",
"  c #2F343B",
". c #313B48",
"X c #323B49",
"o c #313C48",
"O c #395371",
"+ c #3A5371",
"@ c #3A5372",
"# c #40648E",
"$ c #406490",
"% c #406590",
"& c #406691",
"* c #4B81C1",
"= c #4B82C2",
"- c #4B82C3",
"; c #4C81C1",
": c #4F8ED8",
"> c #508FD8",
", c #508FDA",
"< c #5193E1",
"1 c #5294E2",
"2 c white",
/* pixels */
"                ",
"    o&;,,=%o    ",
"   @>111111>+   ",
"  @<11111111<+  ",
" o>1111111111:X ",
" &111111111111$ ",
" -111111111111= ",
" ,111222222111> ",
" >111222222111: ",
" ;111111111111= ",
" %111111111111# ",
" o>1111111111:. ",
"  +<11111111<O  ",
"   +:111111:O   ",
"    X$*,,*#.    ",
"                "
};
