/* XPM */
static char *maximize_inactive[] = {
/* columns rows colors chars-per-pixel */
"16 16 9 1 ",
"  c #2E333F",
". c #2F343F",
"X c #303540",
"o c #525761",
"O c #545862",
"+ c #555A64",
"@ c #5B5F69",
"# c #5C5F68",
"$ c #666A73",
/* pixels */
"................",
"................",
"................",
"................",
"................",
"......XO$$#.....",
".....X.XO$$.....",
".... +X..o$.....",
".... $+X..o.....",
".... $$OX.X.....",
".....@$$OX......",
"................",
"................",
"................",
"................",
"................"
};
