/* XPM */
static char *maximize_pressed[] = {
/* columns rows colors chars-per-pixel */
"16 16 30 1 ",
"  c #2F343B",
". c #313B48",
"X c #323B49",
"o c #313C48",
"O c #395371",
"+ c #3A5371",
"@ c #3A5372",
"# c #40648E",
"$ c #406490",
"% c #406590",
"& c #406691",
"* c #4B81C1",
"= c #4B82C2",
"- c #4B82C3",
"; c #4C81C1",
": c #4F8ED8",
"> c #508FD8",
", c #508FDA",
"< c #5193E1",
"1 c #5294E2",
"2 c #5395E2",
"3 c #5495E2",
"4 c #5596E3",
"5 c #5797E3",
"6 c #C3DAF5",
"7 c #C7DDF6",
"8 c #CCE0F6",
"9 c #DDEAF9",
"0 c #DFEBFA",
"q c white",
/* pixels */
"                ",
"    o&;,,=%o    ",
"   @>111111>+   ",
"  @<11111111<+  ",
" o>1111111111:X ",
" &111147qq9111$ ",
" -1114147qq111= ",
" ,11285136q111> ",
" >112q85136111: ",
" ;112qq7414111= ",
" %1110qq741111# ",
" o>1111111111:. ",
"  +<11111111<O  ",
"   +:111111:O   ",
"    X$*,,*#.    ",
"                "
};
