/* XPM */
static char *maximize_active[] = {
/* columns rows colors chars-per-pixel */
"16 16 9 1 ",
"  c #2F343F",
". c #313641",
"X c #323641",
"o c #6E717B",
"O c #70757E",
"+ c #73777F",
"@ c #7D8089",
"# c #7E818A",
"$ c #8F939A",
/* pixels */
"                ",
"                ",
"                ",
"                ",
"                ",
"      .O$$@     ",
"     . .O$$     ",
"     +X  o$     ",
"     $+X  o     ",
"     $$O. .     ",
"     #$$O.      ",
"                ",
"                ",
"                ",
"                ",
"                "
};
