/* XPM */
static char *stick_inactive[] = {
/* columns rows colors chars-per-pixel */
"16 16 2 1 ",
"  c #2F343F",
". c #797D87",
/* pixels */
"                ",
"                ",
"                ",
"      ..        ",
"      ..        ",
"      ..        ",
"   ........     ",
"   ........     ",
"      ..        ",
"      ..        ",
"      ..        ",
"                ",
"                ",
"                ",
"                ",
"                "
};
